<svg width="16" height="16" viewBox="0 0 16 16" fill="none" xmlns="http://www.w3.org/2000/svg">
<path d="M11.4812 1.98549C11.7923 1.75722 12.1681 1.63372 12.5541 1.63281C12.9684 1.63445 13.3698 1.77727 13.6919 2.03767C14.014 2.29807 14.2375 2.66047 14.3256 3.06499C14.4137 3.46951 14.361 3.89195 14.1762 4.26249C13.9915 4.63304 13.6857 4.92953 13.3095 5.10297C13.1162 6.07827 12.7451 6.84538 12.2344 7.40841L11.1295 5.89844C11.2877 5.65767 11.4176 5.34828 11.5075 4.93655C11.1923 4.71387 10.9561 4.39682 10.8331 4.03122C10.71 3.66562 10.7065 3.27041 10.823 2.90268C10.9395 2.53495 11.17 2.21375 11.4812 1.98549Z" fill="#FC7F7F"/>
<path d="M1.84475 11.6967C2.03264 11.3425 2.33239 11.0603 2.6974 10.8938C2.80856 10.3331 2.97847 9.84148 3.19991 9.41797L4.72549 10.3711C4.63506 10.5627 4.55864 10.7891 4.49946 11.0603C4.82776 11.2907 5.07066 11.6231 5.1904 12.0057C5.31013 12.3883 5.29999 12.7997 5.16154 13.176C5.0231 13.5523 4.76412 13.8723 4.42486 14.0863C4.0856 14.3003 3.68507 14.3964 3.28555 14.3595C2.88604 14.3226 2.50991 14.1548 2.21566 13.8823C1.9214 13.6098 1.72551 13.2477 1.65843 12.8525C1.59136 12.4573 1.65686 12.0509 1.84475 11.6967Z" fill="#FC7F7F"/>
<path d="M6.51562 9.13069C6.06717 9.23082 5.68577 9.36736 5.39776 9.56888C5.26764 9.65965 5.14483 9.76512 5.03236 9.89453L3.61315 8.77786C3.83104 8.50287 4.07852 8.26991 4.35202 8.07843C4.75311 7.7978 5.17753 7.60633 5.60938 7.47098L6.51562 9.13069Z" fill="#FC7F7F"/>
<path d="M9.24609 8.77786C8.85274 8.83422 8.46488 8.86833 8.09448 8.90504C7.72835 8.94133 7.37929 8.98054 7.05469 9.0307L6.29688 7.29872C6.84772 7.19072 7.39699 7.14467 7.91245 7.09358C8.22803 7.0623 8.53092 7.02885 8.81641 6.98809L9.24609 8.77786Z" fill="#FC7F7F"/>
<path d="M11.9023 7.72951C11.8225 7.79711 11.7399 7.86067 11.6549 7.9202C11.076 8.32522 10.4486 8.54452 9.82031 8.67744L9.40625 6.88633C9.89161 6.78465 10.527 6.46414 10.8331 6.24999L11.9023 7.72951Z" fill="#FC7F7F"/>
</svg>
